<svg width="0" height="0" style="position:absolute"><symbol viewBox="0 -40 512 511" id="code" xmlns="http://www.w3.org/2000/svg"><path d="M512 371.555V.5H0v371.055h160.938v30.05h-30.04v30h250.204v-30h-30.04v-30.05zM482 30.5v230.992H30V30.5zM30 291.492h452v50.063H30zm291.063 110.113H190.938v-30.05h130.125zm0 0"/><path d="M210.941 208.965l-49.546-62.969 49.546-62.969-23.574-18.55-64.144 81.52 64.144 81.519zm113.692 18.551l64.144-81.52-64.144-81.52-23.574 18.551 49.546 62.97-49.546 62.968zM241 65.059h30v161.875h-30zm0 0"/></symbol><symbol viewBox="0 0 512 512" id="gear" xmlns="http://www.w3.org/2000/svg"><path d="M307.797 512H204.203l-13.55-46.621a218.459 218.459 0 01-36.462-15.14l-42.586 23.406-73.25-73.25 23.403-42.586a218.772 218.772 0 01-15.137-36.461L0 307.797V204.203l46.621-13.55a218.459 218.459 0 0115.14-36.462l-23.406-42.586 73.25-73.25 42.586 23.403a218.772 218.772 0 0136.461-15.137L204.203 0h103.594l13.55 46.621a218.459 218.459 0 0136.462 15.14l42.586-23.406 73.25 73.25-23.403 42.586a218.772 218.772 0 0115.137 36.461L512 204.203v103.594l-46.621 13.55a218.459 218.459 0 01-15.14 36.462l23.406 42.586-73.25 73.25-42.586-23.403a218.772 218.772 0 01-36.461 15.137zm-81.07-30h58.546l11.918-41 8.141-2.2a188.25 188.25 0 0044.973-18.671l7.316-4.223 37.484 20.602 41.403-41.403-20.602-37.484 4.223-7.316a188.184 188.184 0 0018.672-44.973l2.199-8.14 41-11.919v-58.546l-41-11.918-2.2-8.141a188.25 188.25 0 00-18.671-44.973l-4.223-7.316 20.602-37.484-41.403-41.399-37.484 20.598-7.316-4.223A188.25 188.25 0 00305.332 73.2l-8.14-2.2-11.919-41h-58.546l-11.918 41-8.141 2.2a188.25 188.25 0 00-44.973 18.671l-7.316 4.223-37.484-20.602-41.403 41.403 20.602 37.484-4.223 7.316A188.184 188.184 0 0073.2 206.668l-2.2 8.14-41 11.919v58.546l41 11.918 2.2 8.141a188.25 188.25 0 0018.671 44.973l4.223 7.316-20.602 37.484 41.403 41.403 37.484-20.602 7.316 4.223a188.184 188.184 0 0044.973 18.672l8.14 2.199zm0 0"/><path d="M256 326.18c-38.695 0-70.18-31.48-70.18-70.18s31.48-70.18 70.18-70.18 70.18 31.48 70.18 70.18-31.485 70.18-70.18 70.18zm0-110.36c-22.156 0-40.18 18.024-40.18 40.18s18.024 40.18 40.18 40.18 40.18-18.024 40.18-40.18-18.024-40.18-40.18-40.18zm0 0"/><path d="M256 386.18c-71.781 0-130.18-58.399-130.18-130.18S184.22 125.82 256 125.82 386.18 184.22 386.18 256 327.78 386.18 256 386.18zm0-230.36c-55.238 0-100.18 44.942-100.18 100.18S200.762 356.18 256 356.18 356.18 311.238 356.18 256 311.238 155.82 256 155.82zm0 0"/></symbol><symbol viewBox="0 0 512 512" id="modem" xmlns="http://www.w3.org/2000/svg"><path d="M512 331.867H271V211.395h-30v120.472H0v150.098h30.023V512h30v-30.035h391.954V512h30v-30.035H512zm-30 120.098H30v-90.098h452zm0 0"/><path d="M60.035 391.914h90.074v30H60.035zm120.098 0h30.023v30h-30.023zm121.711 0h30.023v30h-30.023zm60.046 0h90.075v30H361.89zM195.41 166.313l21.215 21.214c21.71-21.71 57.04-21.71 78.75 0l21.215-21.214c-33.41-33.41-87.77-33.41-121.18 0zm0 0"/><path d="M366.55 116.352c-60.956-60.961-160.144-60.961-221.1 0l21.21 21.21c49.266-49.257 129.414-49.257 178.68 0zm0 0"/><path d="M256 30c52.684 0 102.156 20.457 139.3 57.602l21.212-21.215C373.703 23.578 316.699 0 256 0S138.297 23.578 95.488 66.387L116.7 87.602C153.844 50.457 203.316 30 256 30zm0 0"/></symbol><symbol viewBox="0 0 512 512" id="wall" xmlns="http://www.w3.org/2000/svg"><path d="M0 0v512h512V0zm482 96.398H351.332V30H482zm-211 96.403v-66.403h130.668v66.403zm-80.332 96.398v-66.398h130.668v66.398zm0-192.8V30h130.668v66.398zm50.332 30V192.8H110.332v-66.403zM80.332 192.8H30v-66.403h50.332zm80.336 30v66.398H30V222.8zm-80.336 96.398v66.403H30v-66.403zm30 0H241v66.403H110.332zm211 96.403V482H190.668v-66.398zm-50.332-30v-66.403h130.668v66.403zm160.668-66.403H482v66.403h-50.332zm-80.336-30V222.8H482v66.398zm80.336-96.398v-66.403H482V192.8zm-271-162.8v66.398H30V30zM30 415.602h130.668V482H30zM351.332 482v-66.398H482V482zm0 0"/></symbol></svg>